<svg width="360" height="270" viewBox="0 0 360 270" fill="none" xmlns="http://www.w3.org/2000/svg">
<path d="M305.745 108.241C305.653 108.241 305.563 108.213 305.488 108.16L180.794 21.3042C180.414 21.0411 179.963 20.9005 179.502 20.9013C179.04 20.9021 178.59 21.0442 178.211 21.3086L54.4151 108.159C54.3172 108.228 54.196 108.255 54.0782 108.234C53.9604 108.213 53.8556 108.147 53.787 108.049C53.7183 107.951 53.6913 107.83 53.712 107.712C53.7327 107.594 53.7993 107.489 53.8972 107.421L177.693 20.5701C178.223 20.2 178.854 20.0011 179.5 20C180.147 19.9989 180.778 20.1958 181.309 20.5641L306.003 107.42C306.082 107.475 306.141 107.553 306.172 107.644C306.203 107.735 306.204 107.833 306.176 107.925C306.147 108.017 306.09 108.097 306.012 108.153C305.935 108.21 305.841 108.241 305.745 108.241Z" fill="#A4A9AD"/>
<path d="M61.4892 111.32L179.624 23.7515L298.656 117.55L185.711 184.517L124.392 170.538L61.4892 111.32Z" fill="#D5D7D8"/>
<path d="M129.568 225.88H71.2062C70.8478 225.881 70.4929 225.81 70.1617 225.674C69.8304 225.537 69.5295 225.336 69.2759 225.083C69.0223 224.829 68.8212 224.529 68.6839 224.197C68.5467 223.866 68.476 223.511 68.476 223.153C68.476 222.795 68.5467 222.44 68.6839 222.109C68.8212 221.777 69.0223 221.477 69.2759 221.223C69.5295 220.97 69.8304 220.769 70.1617 220.632C70.4929 220.496 70.8478 220.425 71.2062 220.426H129.568C129.926 220.425 130.281 220.496 130.612 220.632C130.944 220.769 131.245 220.97 131.498 221.223C131.752 221.477 131.953 221.777 132.09 222.109C132.227 222.44 132.298 222.795 132.298 223.153C132.298 223.511 132.227 223.866 132.09 224.197C131.953 224.529 131.752 224.829 131.498 225.083C131.245 225.336 130.944 225.537 130.612 225.674C130.281 225.81 129.926 225.881 129.568 225.88Z" fill="#9DCA40"/>
<path d="M92.145 214.155H71.2062C70.8478 214.156 70.4929 214.086 70.1617 213.949C69.8304 213.812 69.5295 213.611 69.2759 213.358C69.0223 213.104 68.8212 212.804 68.6839 212.473C68.5467 212.142 68.476 211.787 68.476 211.428C68.476 211.07 68.5467 210.715 68.6839 210.384C68.8212 210.053 69.0223 209.752 69.2759 209.499C69.5295 209.245 69.8304 209.044 70.1617 208.908C70.4929 208.771 70.8478 208.701 71.2062 208.701H92.145C92.5034 208.701 92.8583 208.771 93.1896 208.908C93.5208 209.044 93.8218 209.245 94.0753 209.499C94.3289 209.752 94.53 210.053 94.6673 210.384C94.8045 210.715 94.8752 211.07 94.8752 211.428C94.8752 211.787 94.8045 212.142 94.6673 212.473C94.53 212.804 94.3289 213.104 94.0753 213.358C93.8218 213.611 93.5208 213.812 93.1896 213.949C92.8583 214.086 92.5034 214.156 92.145 214.155Z" fill="#9DCA40"/>
<path d="M181.286 160.094C180.842 160.094 180.403 160.008 179.992 159.84L107.134 129.604V34.9603C107.135 34.1234 107.468 33.3211 108.06 32.7293C108.651 32.1375 109.454 31.8046 110.29 31.8036H250.062C250.899 31.8046 251.701 32.1375 252.293 32.7293C252.885 33.3211 253.218 34.1234 253.219 34.9603V129.67L253.082 129.729L182.618 159.826C182.196 160.003 181.743 160.094 181.286 160.094Z" fill="white"/>
<path d="M181.286 160.319C180.813 160.32 180.344 160.228 179.906 160.049L106.909 129.755V34.9603C106.91 34.0636 107.266 33.2039 107.9 32.5699C108.534 31.9358 109.394 31.5791 110.29 31.5781H250.062C250.959 31.5791 251.818 31.9358 252.452 32.5699C253.086 33.2039 253.443 34.0636 253.444 34.9603V129.819L182.707 160.033C182.257 160.222 181.774 160.32 181.286 160.319ZM107.811 129.153L180.25 159.215C180.926 159.489 181.682 159.485 182.355 159.203L252.542 129.224V34.9603C252.541 34.3027 252.28 33.6723 251.815 33.2074C251.35 32.7424 250.72 32.4808 250.062 32.48H110.29C109.633 32.4808 109.003 32.7424 108.538 33.2074C108.073 33.6723 107.811 34.3027 107.811 34.9603L107.811 129.153Z" fill="#A4A9AD"/>
<path d="M304.844 107.339H304.754L252.993 129.445L182.174 159.69C181.897 159.807 181.6 159.868 181.3 159.869C181 159.871 180.702 159.813 180.424 159.699L107.36 129.382L54.3274 107.375L54.2464 107.339H54.1561C53.3194 107.34 52.5171 107.673 51.9254 108.264C51.3337 108.856 51.0009 109.659 51 110.496V247.586C51.0009 248.423 51.3337 249.226 51.9254 249.817C52.5171 250.409 53.3194 250.742 54.1561 250.743H304.844C305.681 250.742 306.483 250.409 307.075 249.817C307.666 249.226 307.999 248.423 308 247.586V110.496C307.999 109.659 307.666 108.856 307.075 108.264C306.483 107.673 305.681 107.34 304.844 107.339ZM307.098 247.586C307.098 248.184 306.86 248.758 306.438 249.18C306.015 249.603 305.442 249.841 304.844 249.841H54.1561C53.5583 249.841 52.985 249.603 52.5623 249.18C52.1396 248.758 51.902 248.184 51.9018 247.586V110.496C51.9026 109.913 52.1287 109.352 52.5329 108.932C52.9371 108.512 53.488 108.264 54.0705 108.241L107.36 130.356L180.077 160.534C180.864 160.854 181.746 160.849 182.53 160.52L252.993 130.423L304.934 108.241C305.516 108.266 306.065 108.514 306.468 108.934C306.871 109.354 307.097 109.913 307.098 110.496V247.586Z" fill="#A4A9AD"/>
<path d="M180.557 133.256C177.868 133.261 175.249 132.391 173.097 130.778L172.964 130.678L144.869 109.164C143.568 108.167 142.476 106.923 141.655 105.504C140.835 104.084 140.302 102.518 140.087 100.892C139.872 99.267 139.979 97.6153 140.402 96.0315C140.825 94.4476 141.556 92.9626 142.553 91.6613C143.55 90.3599 144.793 89.2677 146.212 88.447C147.631 87.6263 149.198 87.0932 150.823 86.878C152.448 86.6629 154.099 86.77 155.683 87.1932C157.266 87.6163 158.751 88.3474 160.052 89.3445L178.25 103.301L221.253 47.2076C222.251 45.9065 223.494 44.8148 224.914 43.9945C226.333 43.1743 227.9 42.6417 229.525 42.4272C231.15 42.2126 232.801 42.3203 234.385 42.7441C235.968 43.1679 237.453 43.8995 238.753 44.8971L238.486 45.2602L238.76 44.9024C241.384 46.9193 243.101 49.8948 243.534 53.1762C243.967 56.4576 243.081 59.7767 241.07 62.4055L190.488 128.384C189.318 129.905 187.813 131.135 186.091 131.98C184.369 132.825 182.475 133.262 180.557 133.256Z" fill="#8EB043"/>
</svg>
