<svg width="16" height="16" viewBox="0 0 16 16" fill="none" xmlns="http://www.w3.org/2000/svg">
<path d="M15.8485 13.171L9.06763 1.56375C8.94754 1.38968 8.78776 1.24754 8.60186 1.14939C8.41595 1.05125 8.20941 1 7.99977 1C7.79014 1 7.5836 1.05125 7.39769 1.14939C7.21179 1.24754 7.05201 1.38968 6.93192 1.56375L0.15105 13.171C0.0488926 13.3589 -0.00312101 13.5705 0.00014484 13.785C0.00341069 13.9995 0.0618431 14.2094 0.169672 14.394C0.277501 14.5786 0.430997 14.7315 0.615003 14.8376C0.799009 14.9438 1.00716 14.9994 1.2189 14.9992H14.7379C14.9533 15.0072 15.1668 14.9572 15.3569 14.8542C15.5469 14.7512 15.7065 14.599 15.8194 14.4131C15.9323 14.2272 15.9945 14.0143 15.9997 13.796C16.0048 13.5778 15.9526 13.3621 15.8485 13.171ZM1.26162 13.766L7.99977 2.16953L14.7379 13.766H1.26162Z" fill="#CA1517"/>
<path d="M7.27363 5.20927H8.60845V10.1313H7.27363V5.20927Z" fill="#CA1517"/>
<path d="M7.94638 12.9438C8.34152 12.9438 8.66184 12.6048 8.66184 12.1866C8.66184 11.7684 8.34152 11.4294 7.94638 11.4294C7.55124 11.4294 7.23092 11.7684 7.23092 12.1866C7.23092 12.6048 7.55124 12.9438 7.94638 12.9438Z" fill="#CA1517"/>
</svg>
