<svg width="46" height="46" viewBox="0 0 46 46" fill="none" xmlns="http://www.w3.org/2000/svg">
<rect width="46" height="46" fill="#B52F1F"/>
<path d="M3.83331 3.83331H21.0833V21.0833H3.83331V3.83331ZM24.9166 12.4583C24.9166 11.3257 25.1397 10.2041 25.5732 9.15767C26.0066 8.11124 26.6419 7.16042 27.4429 6.35952C28.2438 5.55861 29.1946 4.9233 30.241 4.48985C31.2874 4.05641 32.409 3.83331 33.5416 3.83331C34.6743 3.83331 35.7959 4.05641 36.8423 4.48985C37.8887 4.9233 38.8395 5.55861 39.6404 6.35952C40.4413 7.16042 41.0767 8.11124 41.5101 9.15767C41.9436 10.2041 42.1666 11.3257 42.1666 12.4583C42.1666 14.7458 41.2579 16.9396 39.6404 18.5571C38.0229 20.1746 35.8291 21.0833 33.5416 21.0833C31.2542 21.0833 29.0604 20.1746 27.4429 18.5571C25.8253 16.9396 24.9166 14.7458 24.9166 12.4583ZM3.83331 24.9166H21.0833V42.1666H3.83331V24.9166ZM24.9166 24.9166H42.1666V42.1666H24.9166V24.9166Z" fill="white"/>
</svg>
