<svg width="24" height="24" viewBox="0 0 24 24" fill="none" xmlns="http://www.w3.org/2000/svg">
<path d="M9.6 10.2856H6.1212L6.1224 10.2747C6.28041 9.49868 6.58697 8.76143 7.0248 8.10456C7.67794 7.13019 8.59443 6.36669 9.6648 5.90526C10.0288 5.749 10.404 5.63121 10.7904 5.55186C11.5895 5.38863 12.4129 5.38863 13.212 5.55186C14.3598 5.79149 15.4132 6.36608 16.242 7.20468L17.9412 5.48993C17.1761 4.71385 16.2698 4.09487 15.2724 3.66709C14.7638 3.44986 14.2352 3.28389 13.6944 3.17161C12.5781 2.9428 11.4279 2.9428 10.3116 3.17161C9.77034 3.28421 9.24138 3.45058 8.7324 3.66831C7.23303 4.31207 5.94952 5.38074 5.0364 6.74563C4.42247 7.66631 3.99277 8.69982 3.7716 9.78774C3.738 9.95168 3.72 10.1193 3.696 10.2856H0L4.8 15.1433L9.6 10.2856ZM14.4 12.7145H17.8788L17.8776 12.7242C17.5636 14.2806 16.6571 15.6494 15.354 16.535C14.7064 16.9809 13.9774 17.2914 13.2096 17.4483C12.4108 17.6113 11.588 17.6113 10.7892 17.4483C10.0224 17.2884 9.29388 16.9781 8.6448 16.535C8.32603 16.3175 8.02866 16.0694 7.7568 15.7942L6.06 17.5114C6.82559 18.2872 7.73225 18.9058 8.73 19.333C9.2388 19.5516 9.7704 19.718 10.308 19.8285C11.4239 20.0572 12.5737 20.0572 13.6896 19.8285C15.8407 19.3768 17.7328 18.0937 18.9636 16.2521C19.5768 15.332 20.0061 14.2994 20.2272 13.2124C20.2596 13.0484 20.2788 12.8808 20.3028 12.7145H24L19.2 7.85682L14.4 12.7145Z" fill="#CA1517"/>
</svg>
