<svg width="19" height="19" viewBox="0 0 19 19" fill="none" xmlns="http://www.w3.org/2000/svg">
<path fill-rule="evenodd" clip-rule="evenodd" d="M14.7778 3V2C14.7778 1.46957 14.5554 0.960859 14.1594 0.585786C13.7635 0.210714 13.2266 0 12.6667 0H6.33333C5.77343 0 5.23646 0.210714 4.84055 0.585786C4.44464 0.960859 4.22222 1.46957 4.22222 2V3H1.05556C0.775605 3 0.50712 3.10536 0.309165 3.29289C0.11121 3.48043 0 3.73478 0 4C0 4.26522 0.11121 4.51957 0.309165 4.70711C0.50712 4.89464 0.775605 5 1.05556 5H2.11111V16C2.11111 16.7956 2.44474 17.5587 3.03861 18.1213C3.63247 18.6839 4.43793 19 5.27778 19H13.7222C14.5621 19 15.3675 18.6839 15.9614 18.1213C16.5553 17.5587 16.8889 16.7956 16.8889 16V5H17.9444C18.2244 5 18.4929 4.89464 18.6908 4.70711C18.8888 4.51957 19 4.26522 19 4C19 3.73478 18.8888 3.48043 18.6908 3.29289C18.4929 3.10536 18.2244 3 17.9444 3H14.7778ZM12.6667 2H6.33333V3H12.6667V2ZM14.7778 5H4.22222V16C4.22222 16.2652 4.33343 16.5196 4.53139 16.7071C4.72934 16.8946 4.99783 17 5.27778 17H13.7222C14.0022 17 14.2707 16.8946 14.4686 16.7071C14.6666 16.5196 14.7778 16.2652 14.7778 16V5Z" fill="#CA1517"/>
<path d="M6.33333 7H8.44444V15H6.33333V7ZM10.5556 7H12.6667V15H10.5556V7Z" fill="#CA1517"/>
</svg>
