<svg width="30" height="30" viewBox="0 0 30 30" fill="none" xmlns="http://www.w3.org/2000/svg">
<path d="M23.0912 24.9866C23.4954 24.9864 23.883 24.8202 24.1687 24.5245L29.5544 18.9479C29.84 18.652 30.0003 18.251 30 17.833L29.9961 11.1451C29.9959 10.727 29.8352 10.3262 29.5493 10.0307L24.1571 4.4608C23.8702 4.16448 23.4832 3.99864 23.079 4.00001L1.52309 4.0134C1.3228 4.01293 1.12439 4.05342 0.939276 4.13253C0.754162 4.21164 0.585998 4.32782 0.444452 4.47438C0.302906 4.62094 0.190773 4.795 0.114499 4.98654C0.0382246 5.17807 -0.000684416 5.38332 9.11036e-06 5.59046L0.0103705 23.4248C0.0106744 23.8428 0.171492 24.2436 0.457456 24.539C0.74342 24.8344 1.13112 25.0002 1.53529 25L23.0912 24.9866ZM3.04893 7.16468L22.4492 7.15263L26.9485 11.8001L26.9516 17.1817L22.4578 21.8348L3.05746 21.8468L3.04893 7.16468Z" fill="#6C9B2E"/>
<path d="M18.3924 12.6604C17.4126 13.6749 17.4136 15.3188 18.3945 16.332C19.3755 17.3453 20.965 17.3443 21.9448 16.3298C22.9246 15.3153 22.9236 13.6715 21.9426 12.6582C20.9617 11.6449 19.3722 11.6459 18.3924 12.6604Z" fill="#6C9B2E"/>
</svg>
