<svg width="16" height="16" viewBox="0 0 16 16" fill="none" xmlns="http://www.w3.org/2000/svg">
<path d="M15 7.25H13.7013C13.5341 5.99558 12.9586 4.83107 12.0638 3.93622C11.1689 3.04137 10.0044 2.46594 8.75 2.29875V1C8.75 0.801088 8.67098 0.610322 8.53033 0.46967C8.38968 0.329018 8.19891 0.25 8 0.25C7.80109 0.25 7.61032 0.329018 7.46967 0.46967C7.32902 0.610322 7.25 0.801088 7.25 1V2.29875C5.99558 2.46594 4.83107 3.04137 3.93622 3.93622C3.04137 4.83107 2.46594 5.99558 2.29875 7.25H1C0.801088 7.25 0.610322 7.32902 0.46967 7.46967C0.329018 7.61032 0.25 7.80109 0.25 8C0.25 8.19891 0.329018 8.38968 0.46967 8.53033C0.610322 8.67098 0.801088 8.75 1 8.75H2.29875C2.46594 10.0044 3.04137 11.1689 3.93622 12.0638C4.83107 12.9586 5.99558 13.5341 7.25 13.7013V15C7.25 15.1989 7.32902 15.3897 7.46967 15.5303C7.61032 15.671 7.80109 15.75 8 15.75C8.19891 15.75 8.38968 15.671 8.53033 15.5303C8.67098 15.3897 8.75 15.1989 8.75 15V13.7013C10.0044 13.5341 11.1689 12.9586 12.0638 12.0638C12.9586 11.1689 13.5341 10.0044 13.7013 8.75H15C15.1989 8.75 15.3897 8.67098 15.5303 8.53033C15.671 8.38968 15.75 8.19891 15.75 8C15.75 7.80109 15.671 7.61032 15.5303 7.46967C15.3897 7.32902 15.1989 7.25 15 7.25ZM8 12.25C7.15943 12.25 6.33774 12.0007 5.63883 11.5337C4.93992 11.0667 4.39518 10.403 4.07351 9.6264C3.75184 8.84982 3.66768 7.99529 3.83166 7.17087C3.99565 6.34645 4.40042 5.58917 4.9948 4.9948C5.58917 4.40042 6.34645 3.99565 7.17087 3.83166C7.99529 3.66768 8.84982 3.75184 9.6264 4.07351C10.403 4.39518 11.0667 4.93992 11.5337 5.63883C12.0007 6.33774 12.25 7.15943 12.25 8C12.2488 9.12681 11.8007 10.2071 11.0039 11.0039C10.2071 11.8007 9.12681 12.2488 8 12.25Z" fill="#666667"/>
</svg>
