<svg width="24" height="24" viewBox="0 0 24 24" fill="none" xmlns="http://www.w3.org/2000/svg">
<path fill-rule="evenodd" clip-rule="evenodd" d="M23.4727 3.52371C23.8103 3.85875 24 4.31312 24 4.78687C24 5.26063 23.8103 5.71499 23.4727 6.05004L9.97375 19.4417C9.79536 19.6187 9.58356 19.7591 9.35046 19.8549C9.11736 19.9507 8.86752 20 8.61521 20C8.3629 20 8.11306 19.9507 7.87995 19.8549C7.64685 19.7591 7.43506 19.6187 7.25667 19.4417L0.549818 12.7893C0.377806 12.6245 0.240604 12.4274 0.146216 12.2094C0.0518283 11.9914 0.002146 11.757 6.79989e-05 11.5197C-0.00201 11.2825 0.0435581 11.0472 0.134113 10.8277C0.224668 10.6081 0.358396 10.4086 0.527495 10.2408C0.696594 10.0731 0.897677 9.94042 1.11901 9.85059C1.34034 9.76075 1.5775 9.71555 1.81663 9.71761C2.05576 9.71967 2.29209 9.76896 2.51181 9.8626C2.73154 9.95623 2.93027 10.0923 3.0964 10.263L8.61461 15.7373L20.9249 3.52371C21.0922 3.35768 21.2908 3.22597 21.5093 3.13611C21.7279 3.04625 21.9622 3 22.1988 3C22.4354 3 22.6697 3.04625 22.8883 3.13611C23.1069 3.22597 23.3054 3.35768 23.4727 3.52371Z" fill="#4A4A4A"/>
</svg>
