<svg width="16" height="16" viewBox="0 0 16 16" fill="none" xmlns="http://www.w3.org/2000/svg">
<path d="M14.75 7H13.4513C13.2841 5.74558 12.7086 4.58107 11.8138 3.68622C10.9189 2.79137 9.75442 2.21594 8.5 2.04875V0.75C8.5 0.551088 8.42098 0.360322 8.28033 0.21967C8.13968 0.0790176 7.94891 0 7.75 0C7.55109 0 7.36032 0.0790176 7.21967 0.21967C7.07902 0.360322 7 0.551088 7 0.75V2.04875C5.74558 2.21594 4.58107 2.79137 3.68622 3.68622C2.79137 4.58107 2.21594 5.74558 2.04875 7H0.75C0.551088 7 0.360322 7.07902 0.21967 7.21967C0.0790176 7.36032 0 7.55109 0 7.75C0 7.94891 0.0790176 8.13968 0.21967 8.28033C0.360322 8.42098 0.551088 8.5 0.75 8.5H2.04875C2.21594 9.75442 2.79137 10.9189 3.68622 11.8138C4.58107 12.7086 5.74558 13.2841 7 13.4513V14.75C7 14.9489 7.07902 15.1397 7.21967 15.2803C7.36032 15.421 7.55109 15.5 7.75 15.5C7.94891 15.5 8.13968 15.421 8.28033 15.2803C8.42098 15.1397 8.5 14.9489 8.5 14.75V13.4513C9.75442 13.2841 10.9189 12.7086 11.8138 11.8138C12.7086 10.9189 13.2841 9.75442 13.4513 8.5H14.75C14.9489 8.5 15.1397 8.42098 15.2803 8.28033C15.421 8.13968 15.5 7.94891 15.5 7.75C15.5 7.55109 15.421 7.36032 15.2803 7.21967C15.1397 7.07902 14.9489 7 14.75 7ZM7.75 12C6.90943 12 6.08774 11.7507 5.38883 11.2837C4.68992 10.8167 4.14518 10.153 3.82351 9.3764C3.50184 8.59982 3.41768 7.74529 3.58166 6.92087C3.74565 6.09645 4.15042 5.33917 4.7448 4.7448C5.33917 4.15042 6.09645 3.74565 6.92087 3.58166C7.74529 3.41768 8.59982 3.50184 9.3764 3.82351C10.153 4.14518 10.8167 4.68992 11.2837 5.38883C11.7507 6.08774 12 6.90943 12 7.75C11.9988 8.87681 11.5507 9.95715 10.7539 10.7539C9.95715 11.5507 8.87681 11.9988 7.75 12Z" fill="#4A4A4A"/>
<path d="M14.75 7H13.4513C13.2841 5.74558 12.7086 4.58107 11.8138 3.68622C10.9189 2.79137 9.75442 2.21594 8.5 2.04875V0.75C8.5 0.551088 8.42098 0.360322 8.28033 0.21967C8.13968 0.0790176 7.94891 0 7.75 0C7.55109 0 7.36032 0.0790176 7.21967 0.21967C7.07902 0.360322 7 0.551088 7 0.75V2.04875C5.74558 2.21594 4.58107 2.79137 3.68622 3.68622C2.79137 4.58107 2.21594 5.74558 2.04875 7H0.75C0.551088 7 0.360322 7.07902 0.21967 7.21967C0.0790176 7.36032 0 7.55109 0 7.75C0 7.94891 0.0790176 8.13968 0.21967 8.28033C0.360322 8.42098 0.551088 8.5 0.75 8.5H2.04875C2.21594 9.75442 2.79137 10.9189 3.68622 11.8138C4.58107 12.7086 5.74558 13.2841 7 13.4513V14.75C7 14.9489 7.07902 15.1397 7.21967 15.2803C7.36032 15.421 7.55109 15.5 7.75 15.5C7.94891 15.5 8.13968 15.421 8.28033 15.2803C8.42098 15.1397 8.5 14.9489 8.5 14.75V13.4513C9.75442 13.2841 10.9189 12.7086 11.8138 11.8138C12.7086 10.9189 13.2841 9.75442 13.4513 8.5H14.75C14.9489 8.5 15.1397 8.42098 15.2803 8.28033C15.421 8.13968 15.5 7.94891 15.5 7.75C15.5 7.55109 15.421 7.36032 15.2803 7.21967C15.1397 7.07902 14.9489 7 14.75 7ZM7.75 12C6.90943 12 6.08774 11.7507 5.38883 11.2837C4.68992 10.8167 4.14518 10.153 3.82351 9.3764C3.50184 8.59982 3.41768 7.74529 3.58166 6.92087C3.74565 6.09645 4.15042 5.33917 4.7448 4.7448C5.33917 4.15042 6.09645 3.74565 6.92087 3.58166C7.74529 3.41768 8.59982 3.50184 9.3764 3.82351C10.153 4.14518 10.8167 4.68992 11.2837 5.38883C11.7507 6.08774 12 6.90943 12 7.75C11.9988 8.87681 11.5507 9.95715 10.7539 10.7539C9.95715 11.5507 8.87681 11.9988 7.75 12Z" stroke="black"/>
</svg>
