<svg width="16" height="16" viewBox="0 0 16 16" fill="none" xmlns="http://www.w3.org/2000/svg">
<path d="M15.8485 12.171L9.06763 0.563751C8.94754 0.389681 8.78776 0.247538 8.60186 0.149393C8.41595 0.0512483 8.20941 0 7.99977 0C7.79014 0 7.5836 0.0512483 7.39769 0.149393C7.21179 0.247538 7.05201 0.389681 6.93192 0.563751L0.15105 12.171C0.0488926 12.3589 -0.00312101 12.5705 0.00014484 12.785C0.00341069 12.9995 0.0618431 13.2094 0.169672 13.394C0.277501 13.5786 0.430997 13.7315 0.615003 13.8376C0.799009 13.9438 1.00716 13.9994 1.2189 13.9992H14.7379C14.9533 14.0072 15.1668 13.9572 15.3569 13.8542C15.5469 13.7512 15.7065 13.599 15.8194 13.4131C15.9323 13.2272 15.9945 13.0143 15.9997 12.796C16.0048 12.5778 15.9526 12.3621 15.8485 12.171ZM1.26162 12.766L7.99977 1.16953L14.7379 12.766H1.26162Z" fill="#CA1517"/>
<path d="M7.27363 4.20927H8.60845V9.13126H7.27363V4.20927Z" fill="#CA1517"/>
<path d="M7.94638 11.9438C8.34152 11.9438 8.66184 11.6048 8.66184 11.1866C8.66184 10.7684 8.34152 10.4294 7.94638 10.4294C7.55124 10.4294 7.23092 10.7684 7.23092 11.1866C7.23092 11.6048 7.55124 11.9438 7.94638 11.9438Z" fill="#CA1517"/>
</svg>
