<svg width="14" height="14" viewBox="0 0 14 14" fill="none" xmlns="http://www.w3.org/2000/svg">
<path d="M7.66668 5H6.33334V3.66667H7.66668V5ZM7.66668 6.33333H6.33334V10.3333H7.66668V6.33333ZM7.00001 1.66667C4.05934 1.66667 1.66668 4.05933 1.66668 7C1.66668 9.94066 4.05934 12.3333 7.00001 12.3333C9.94068 12.3333 12.3333 9.94066 12.3333 7C12.3333 4.05933 9.94068 1.66667 7.00001 1.66667ZM7.00001 0.333332C10.682 0.333332 13.6667 3.318 13.6667 7C13.6667 10.682 10.682 13.6667 7.00001 13.6667C3.31801 13.6667 0.333344 10.682 0.333344 7C0.333344 3.318 3.31801 0.333332 7.00001 0.333332Z" fill="#CA1517"/>
</svg>
