<svg width="24" height="24" viewBox="0 0 24 24" fill="none" xmlns="http://www.w3.org/2000/svg">
<path d="M13.636 10.2H11V9H13.637C13.7107 9.01078 13.78 9.04195 13.837 9.09C13.872 9.121 13.907 9.163 13.937 9.23C13.967 9.296 14 9.412 14 9.6C14.0052 9.72639 13.9838 9.85246 13.937 9.97C13.916 10.0195 13.8847 10.064 13.8453 10.1006C13.8058 10.1371 13.759 10.1649 13.708 10.182C13.669 10.196 13.642 10.199 13.636 10.2Z" fill="white"/>
<path d="M10.115 21.811C10.721 22.311 11.353 22.768 12 23.214C12.6484 22.7739 13.2773 22.3058 13.885 21.811C14.898 20.9792 15.8513 20.0773 16.738 19.112C18.782 16.877 21 13.637 21 10C21 8.8181 20.7672 7.64778 20.3149 6.55585C19.8626 5.46392 19.1997 4.47177 18.364 3.63604C17.5282 2.80031 16.5361 2.13738 15.4442 1.68508C14.3522 1.23279 13.1819 1 12 1C10.8181 1 9.64778 1.23279 8.55585 1.68508C7.46392 2.13738 6.47177 2.80031 5.63604 3.63604C4.80031 4.47177 4.13738 5.46392 3.68508 6.55585C3.23279 7.64778 3 8.8181 3 10C3 13.637 5.218 16.876 7.262 19.112C8.14862 20.0777 9.10197 20.9789 10.115 21.811ZM13.636 7C14.08 7 14.658 7.16 15.141 7.574C15.661 8.021 16 8.705 16 9.6C16 10.495 15.66 11.179 15.14 11.626C14.721 11.987 14.1889 12.19 13.636 12.2H11V15H9V7H13.636Z" fill="white"/>
</svg>
